<svg width="50" height="50" viewBox="0 0 50 50" fill="none" xmlns="http://www.w3.org/2000/svg">
<path fill-rule="evenodd" clip-rule="evenodd" d="M21.1673 43.9743C32.8577 43.9743 42.3346 34.1303 42.3346 21.9872C42.3346 16.6349 40.4935 11.7292 37.4332 7.91636C44.8377 11.3405 50.0001 19.0505 50.0001 28.0128C50.0001 40.156 40.5232 50 28.8328 50C22.2952 50 16.4497 46.9214 12.5669 42.0836C15.1948 43.2989 18.1051 43.9743 21.1673 43.9743ZM12.5669 42.0836C5.16239 38.6595 0 30.9495 0 21.9872C0 9.84398 9.47692 0 21.1673 0C27.7049 0 33.5504 3.07864 37.4332 7.91636C34.8053 6.70112 31.895 6.0257 28.8328 6.0257C17.1424 6.0257 7.66553 15.8697 7.66553 28.0128C7.66553 33.3651 9.50665 38.2708 12.5669 42.0836Z" fill="#372D12"/>
</svg>
